
<svg viewBox="0 0 500 220" xmlns="http://www.w3.org/2000/svg">
  <defs>
    <linearGradient id="royalGradient" x1="0%" y1="0%" x2="100%" y2="100%">
      <stop offset="0%" style="stop-color:#00416a;stop-opacity:0.15" />
      <stop offset="50%" style="stop-color:#d4af37;stop-opacity:0.25" />
      <stop offset="100%" style="stop-color:#00416a;stop-opacity:0.15" />
    </linearGradient>
    <linearGradient id="textGradient" x1="0%" y1="0%" x2="100%" y2="0%">
      <stop offset="0%" style="stop-color:#00416a" />
      <stop offset="50%" style="stop-color:#0074b7" />
      <stop offset="100%" style="stop-color:#00416a" />
    </linearGradient>
    <filter id="glow">
      <feGaussianBlur stdDeviation="4" result="coloredBlur"/>
      <feMerge>
        <feMergeNode in="coloredBlur"/>
        <feMergeNode in="SourceGraphic"/>
      </feMerge>
    </filter>
    <filter id="goldGlow">
      <feGaussianBlur stdDeviation="2" result="coloredBlur"/>
      <feMerge>
        <feMergeNode in="coloredBlur"/>
        <feMergeNode in="SourceGraphic"/>
      </feMerge>
    </filter>
  </defs>
  <path d="M 250 25 L 450 110 L 250 195 L 50 110 Z" fill="url(#royalGradient)" stroke="#d4af37" stroke-width="3" opacity="0.8"/>
  <path d="M 250 45 L 420 110 L 250 175 L 80 110 Z" fill="none" stroke="#d4af37" stroke-width="1.5" opacity="0.4" stroke-dasharray="5,5"/>
  <g opacity="0.6">
    <circle cx="250" cy="25" r="6" fill="#d4af37" filter="url(#goldGlow)"/>
    <path d="M 245 20 Q 250 10 255 20" fill="none" stroke="#d4af37" stroke-width="1.5"/>
    <circle cx="450" cy="110" r="6" fill="#d4af37" filter="url(#goldGlow)"/>
    <path d="M 455 105 Q 465 110 455 115" fill="none" stroke="#d4af37" stroke-width="1.5"/>
    <circle cx="250" cy="195" r="6" fill="#d4af37" filter="url(#goldGlow)"/>
    <path d="M 245 200 Q 250 210 255 200" fill="none" stroke="#d4af37" stroke-width="1.5"/>
    <circle cx="50" cy="110" r="6" fill="#d4af37" filter="url(#goldGlow)"/>
    <path d="M 45 105 Q 35 110 45 115" fill="none" stroke="#d4af37" stroke-width="1.5"/>
  </g>
  <g opacity="0.4">
    <path d="M 100 100 Q 105 95 110 100 T 120 100" fill="none" stroke="#d4af37" stroke-width="2"/>
    <path d="M 100 110 Q 105 115 110 110 T 120 110" fill="none" stroke="#d4af37" stroke-width="2"/>
    <circle cx="110" cy="105" r="3" fill="#d4af37"/>
    <path d="M 380 100 Q 385 95 390 100 T 400 100" fill="none" stroke="#d4af37" stroke-width="2"/>
    <path d="M 380 110 Q 385 115 390 110 T 400 110" fill="none" stroke="#d4af37" stroke-width="2"/>
    <circle cx="390" cy="105" r="3" fill="#d4af37"/>
  </g>
  <text x="250" y="130" font-family="'Cinzel', serif" font-size="72" font-weight="600" text-anchor="middle" fill="none" stroke="#0a1e36" stroke-width="14" stroke-linejoin="round" stroke-linecap="round" letter-spacing="12">BIRBAL</text>
  <text x="250" y="130" font-family="'Cinzel', serif" font-size="72" font-weight="600" text-anchor="middle" fill="none" stroke="#d4af37" stroke-width="10" stroke-linejoin="round" stroke-linecap="round" letter-spacing="12" filter="url(#goldGlow)">BIRBAL</text>
  <text x="250" y="130" font-family="'Cinzel', serif" font-size="72" font-weight="600" text-anchor="middle" fill="none" stroke="url(#textGradient)" stroke-width="6" stroke-linejoin="round" stroke-linecap="round" letter-spacing="12" filter="url(#glow)">BIRBAL</text>
  <text x="250" y="130" font-family="'Cinzel', serif" font-size="72" font-weight="600" text-anchor="middle" fill="#fdfbf7" letter-spacing="12">BIRBAL</text>
  <line x1="140" y1="150" x2="360" y2="150" stroke="#d4af37" stroke-width="2" opacity="0.5"/>
  <circle cx="140" cy="150" r="3" fill="#d4af37" opacity="0.6"/>
  <circle cx="360" cy="150" r="3" fill="#d4af37" opacity="0.6"/>
</svg>
            